<mxfile host="app.diagrams.net" modified="2024-06-24T14:29:36.208Z" agent="Mozilla/5.0 (Windows NT 10.0; Win64; x64) AppleWebKit/537.36 (KHTML, like Gecko) Chrome/126.0.0.0 Safari/537.36" etag="pTRADamrFAaBYYVNztwY" version="24.5.4" type="github">
  <diagram id="C5RBs43oDa-KdzZeNtuy" name="Page-1">
    <mxGraphModel dx="3341" dy="1240" grid="1" gridSize="10" guides="1" tooltips="1" connect="1" arrows="1" fold="1" page="1" pageScale="1" pageWidth="827" pageHeight="1169" math="0" shadow="0">
      <root>
        <mxCell id="WIyWlLk6GJQsqaUBKTNV-0" />
        <mxCell id="WIyWlLk6GJQsqaUBKTNV-1" parent="WIyWlLk6GJQsqaUBKTNV-0" />
        <mxCell id="LFuUjHjW0SBnYXP0ggwj-48" style="edgeStyle=orthogonalEdgeStyle;rounded=0;orthogonalLoop=1;jettySize=auto;html=1;" edge="1" parent="WIyWlLk6GJQsqaUBKTNV-1" source="LFuUjHjW0SBnYXP0ggwj-4" target="LFuUjHjW0SBnYXP0ggwj-24">
          <mxGeometry relative="1" as="geometry" />
        </mxCell>
        <mxCell id="LFuUjHjW0SBnYXP0ggwj-4" value="&lt;font face=&quot;Lucida Console&quot;&gt;Magazzino(&lt;/font&gt;&lt;span style=&quot;font-family: &amp;quot;Lucida Console&amp;quot;;&quot;&gt;padre)&lt;/span&gt;" style="swimlane;fontStyle=1;align=center;verticalAlign=top;childLayout=stackLayout;horizontal=1;startSize=26;horizontalStack=0;resizeParent=1;resizeParentMax=0;resizeLast=0;collapsible=1;marginBottom=0;whiteSpace=wrap;html=1;" vertex="1" parent="WIyWlLk6GJQsqaUBKTNV-1">
          <mxGeometry x="-433" y="143" width="300" height="180" as="geometry">
            <mxRectangle x="30" y="250" width="100" height="30" as="alternateBounds" />
          </mxGeometry>
        </mxCell>
        <mxCell id="LFuUjHjW0SBnYXP0ggwj-5" value="&lt;b&gt;Atributti:&lt;/b&gt;&lt;div&gt;-&lt;/div&gt;" style="text;strokeColor=none;fillColor=none;align=left;verticalAlign=top;spacingLeft=4;spacingRight=4;overflow=hidden;rotatable=0;points=[[0,0.5],[1,0.5]];portConstraint=eastwest;whiteSpace=wrap;html=1;" vertex="1" parent="LFuUjHjW0SBnYXP0ggwj-4">
          <mxGeometry y="26" width="300" height="34" as="geometry" />
        </mxCell>
        <mxCell id="LFuUjHjW0SBnYXP0ggwj-6" value="" style="line;strokeWidth=1;fillColor=none;align=left;verticalAlign=middle;spacingTop=-1;spacingLeft=3;spacingRight=3;rotatable=0;labelPosition=right;points=[];portConstraint=eastwest;strokeColor=inherit;" vertex="1" parent="LFuUjHjW0SBnYXP0ggwj-4">
          <mxGeometry y="60" width="300" height="8" as="geometry" />
        </mxCell>
        <mxCell id="LFuUjHjW0SBnYXP0ggwj-7" value="&lt;b&gt;Method:&amp;nbsp;&lt;/b&gt;&lt;div&gt;VisualizzaDispositivi;&amp;nbsp;&lt;br&gt;RicercaTipoDispositivo;&amp;nbsp;&lt;br&gt;RicercaPerProdutori;&amp;nbsp;&lt;br&gt;RicercaPerModelo;&amp;nbsp;&lt;br&gt;RicercaPrezzoVendita;&lt;br&gt;RicercaRangePrezzi;&amp;nbsp;&lt;br&gt;&lt;/div&gt;" style="text;strokeColor=none;fillColor=none;align=left;verticalAlign=top;spacingLeft=4;spacingRight=4;overflow=hidden;rotatable=0;points=[[0,0.5],[1,0.5]];portConstraint=eastwest;whiteSpace=wrap;html=1;" vertex="1" parent="LFuUjHjW0SBnYXP0ggwj-4">
          <mxGeometry y="68" width="300" height="112" as="geometry" />
        </mxCell>
        <mxCell id="LFuUjHjW0SBnYXP0ggwj-43" style="edgeStyle=orthogonalEdgeStyle;rounded=0;orthogonalLoop=1;jettySize=auto;html=1;" edge="1" parent="WIyWlLk6GJQsqaUBKTNV-1" source="LFuUjHjW0SBnYXP0ggwj-14" target="LFuUjHjW0SBnYXP0ggwj-7">
          <mxGeometry relative="1" as="geometry">
            <Array as="points">
              <mxPoint x="-443" y="243" />
              <mxPoint x="-443" y="243" />
            </Array>
          </mxGeometry>
        </mxCell>
        <mxCell id="LFuUjHjW0SBnYXP0ggwj-14" value="&lt;font face=&quot;Lucida Console&quot;&gt;Dispositivo(padre)&lt;/font&gt;" style="swimlane;fontStyle=1;align=center;verticalAlign=top;childLayout=stackLayout;horizontal=1;startSize=26;horizontalStack=0;resizeParent=1;resizeParentMax=0;resizeLast=0;collapsible=1;marginBottom=0;whiteSpace=wrap;html=1;" vertex="1" parent="WIyWlLk6GJQsqaUBKTNV-1">
          <mxGeometry x="-783" y="127" width="300" height="230" as="geometry">
            <mxRectangle x="30" y="250" width="100" height="30" as="alternateBounds" />
          </mxGeometry>
        </mxCell>
        <mxCell id="LFuUjHjW0SBnYXP0ggwj-15" value="&lt;b&gt;Atributti:&lt;/b&gt;&lt;div&gt;&lt;div&gt;enum - tipiDispositivo(tablet, smartphone, notebook);&amp;nbsp;&lt;/div&gt;&lt;div&gt;&lt;span style=&quot;background-color: initial;&quot;&gt;String -&amp;nbsp; produttore;&amp;nbsp;&lt;/span&gt;&lt;/div&gt;&lt;div&gt;String - modello;&amp;nbsp;&lt;/div&gt;&lt;div&gt;String - descrizione;&amp;nbsp;&lt;/div&gt;&lt;div&gt;double – dimensioneDisplay;&amp;nbsp;&lt;/div&gt;&lt;div&gt;int – dimensioneSpazio;&amp;nbsp;&lt;/div&gt;&lt;div&gt;double – prezzoAcquisto;&amp;nbsp;&lt;/div&gt;&lt;div&gt;double – prezzoVendita;&amp;nbsp;&lt;/div&gt;&lt;div&gt;String – idDispositivo;&amp;nbsp;&lt;/div&gt;&lt;/div&gt;" style="text;strokeColor=none;fillColor=none;align=left;verticalAlign=top;spacingLeft=4;spacingRight=4;overflow=hidden;rotatable=0;points=[[0,0.5],[1,0.5]];portConstraint=eastwest;whiteSpace=wrap;html=1;" vertex="1" parent="LFuUjHjW0SBnYXP0ggwj-14">
          <mxGeometry y="26" width="300" height="154" as="geometry" />
        </mxCell>
        <mxCell id="LFuUjHjW0SBnYXP0ggwj-16" value="" style="line;strokeWidth=1;fillColor=none;align=left;verticalAlign=middle;spacingTop=-1;spacingLeft=3;spacingRight=3;rotatable=0;labelPosition=right;points=[];portConstraint=eastwest;strokeColor=inherit;" vertex="1" parent="LFuUjHjW0SBnYXP0ggwj-14">
          <mxGeometry y="180" width="300" height="8" as="geometry" />
        </mxCell>
        <mxCell id="LFuUjHjW0SBnYXP0ggwj-17" value="&lt;b&gt;Method:&amp;nbsp;&lt;/b&gt;&lt;div&gt;CreareDispositivo;&amp;nbsp;&lt;br&gt;&lt;/div&gt;" style="text;strokeColor=none;fillColor=none;align=left;verticalAlign=top;spacingLeft=4;spacingRight=4;overflow=hidden;rotatable=0;points=[[0,0.5],[1,0.5]];portConstraint=eastwest;whiteSpace=wrap;html=1;" vertex="1" parent="LFuUjHjW0SBnYXP0ggwj-14">
          <mxGeometry y="188" width="300" height="42" as="geometry" />
        </mxCell>
        <mxCell id="LFuUjHjW0SBnYXP0ggwj-18" value="&lt;font face=&quot;Lucida Console&quot;&gt;Carello&lt;/font&gt;" style="swimlane;fontStyle=1;align=center;verticalAlign=top;childLayout=stackLayout;horizontal=1;startSize=26;horizontalStack=0;resizeParent=1;resizeParentMax=0;resizeLast=0;collapsible=1;marginBottom=0;whiteSpace=wrap;html=1;" vertex="1" parent="WIyWlLk6GJQsqaUBKTNV-1">
          <mxGeometry x="-763" y="873" width="300" height="170" as="geometry">
            <mxRectangle x="30" y="250" width="100" height="30" as="alternateBounds" />
          </mxGeometry>
        </mxCell>
        <mxCell id="LFuUjHjW0SBnYXP0ggwj-19" value="&lt;b&gt;Atributti:&lt;/b&gt;&lt;div&gt;-&lt;/div&gt;" style="text;strokeColor=none;fillColor=none;align=left;verticalAlign=top;spacingLeft=4;spacingRight=4;overflow=hidden;rotatable=0;points=[[0,0.5],[1,0.5]];portConstraint=eastwest;whiteSpace=wrap;html=1;" vertex="1" parent="LFuUjHjW0SBnYXP0ggwj-18">
          <mxGeometry y="26" width="300" height="44" as="geometry" />
        </mxCell>
        <mxCell id="LFuUjHjW0SBnYXP0ggwj-20" value="" style="line;strokeWidth=1;fillColor=none;align=left;verticalAlign=middle;spacingTop=-1;spacingLeft=3;spacingRight=3;rotatable=0;labelPosition=right;points=[];portConstraint=eastwest;strokeColor=inherit;" vertex="1" parent="LFuUjHjW0SBnYXP0ggwj-18">
          <mxGeometry y="70" width="300" height="8" as="geometry" />
        </mxCell>
        <mxCell id="LFuUjHjW0SBnYXP0ggwj-21" value="&lt;b&gt;Method:&amp;nbsp;&lt;/b&gt;&lt;div&gt;&lt;div&gt;AggiungeIDDispositivoAlCarello;&lt;/div&gt;&lt;div&gt;RimoviIDDispositivoAlCarello;&amp;nbsp;&lt;/div&gt;&lt;div&gt;TotaleCarello;&amp;nbsp;&lt;/div&gt;&lt;div&gt;FinalizaCompra;&amp;nbsp;&lt;/div&gt;&lt;/div&gt;" style="text;strokeColor=none;fillColor=none;align=left;verticalAlign=top;spacingLeft=4;spacingRight=4;overflow=hidden;rotatable=0;points=[[0,0.5],[1,0.5]];portConstraint=eastwest;whiteSpace=wrap;html=1;" vertex="1" parent="LFuUjHjW0SBnYXP0ggwj-18">
          <mxGeometry y="78" width="300" height="92" as="geometry" />
        </mxCell>
        <mxCell id="LFuUjHjW0SBnYXP0ggwj-49" style="edgeStyle=orthogonalEdgeStyle;rounded=0;orthogonalLoop=1;jettySize=auto;html=1;" edge="1" parent="WIyWlLk6GJQsqaUBKTNV-1" source="LFuUjHjW0SBnYXP0ggwj-24" target="LFuUjHjW0SBnYXP0ggwj-28">
          <mxGeometry relative="1" as="geometry">
            <Array as="points">
              <mxPoint x="-393" y="623" />
              <mxPoint x="-613" y="623" />
            </Array>
          </mxGeometry>
        </mxCell>
        <mxCell id="LFuUjHjW0SBnYXP0ggwj-56" style="edgeStyle=orthogonalEdgeStyle;rounded=0;orthogonalLoop=1;jettySize=auto;html=1;entryX=0.5;entryY=0;entryDx=0;entryDy=0;" edge="1" parent="WIyWlLk6GJQsqaUBKTNV-1" source="LFuUjHjW0SBnYXP0ggwj-24" target="LFuUjHjW0SBnYXP0ggwj-34">
          <mxGeometry relative="1" as="geometry">
            <Array as="points">
              <mxPoint x="-283" y="623" />
              <mxPoint x="-193" y="623" />
            </Array>
          </mxGeometry>
        </mxCell>
        <mxCell id="LFuUjHjW0SBnYXP0ggwj-24" value="&lt;font face=&quot;Lucida Console&quot;&gt;Utente(padre)&lt;/font&gt;" style="swimlane;fontStyle=1;align=center;verticalAlign=top;childLayout=stackLayout;horizontal=1;startSize=26;horizontalStack=0;resizeParent=1;resizeParentMax=0;resizeLast=0;collapsible=1;marginBottom=0;whiteSpace=wrap;html=1;" vertex="1" parent="WIyWlLk6GJQsqaUBKTNV-1">
          <mxGeometry x="-433" y="383" width="300" height="180" as="geometry">
            <mxRectangle x="30" y="250" width="100" height="30" as="alternateBounds" />
          </mxGeometry>
        </mxCell>
        <mxCell id="LFuUjHjW0SBnYXP0ggwj-25" value="&lt;b&gt;Atributti:&lt;/b&gt;&lt;div&gt;String nome;&amp;nbsp;&lt;/div&gt;&lt;div&gt;String Email;&lt;/div&gt;&lt;div&gt;int Telefono;&amp;nbsp;&lt;/div&gt;&lt;div&gt;String Password;&amp;nbsp;&lt;/div&gt;&lt;div&gt;&lt;span style=&quot;background-color: initial;&quot;&gt;Enum tipoUtente (Cliente, Magazzinieri);&lt;/span&gt;&lt;/div&gt;" style="text;strokeColor=none;fillColor=none;align=left;verticalAlign=top;spacingLeft=4;spacingRight=4;overflow=hidden;rotatable=0;points=[[0,0.5],[1,0.5]];portConstraint=eastwest;whiteSpace=wrap;html=1;" vertex="1" parent="LFuUjHjW0SBnYXP0ggwj-24">
          <mxGeometry y="26" width="300" height="94" as="geometry" />
        </mxCell>
        <mxCell id="LFuUjHjW0SBnYXP0ggwj-26" value="" style="line;strokeWidth=1;fillColor=none;align=left;verticalAlign=middle;spacingTop=-1;spacingLeft=3;spacingRight=3;rotatable=0;labelPosition=right;points=[];portConstraint=eastwest;strokeColor=inherit;" vertex="1" parent="LFuUjHjW0SBnYXP0ggwj-24">
          <mxGeometry y="120" width="300" height="8" as="geometry" />
        </mxCell>
        <mxCell id="LFuUjHjW0SBnYXP0ggwj-27" value="&lt;b&gt;Method:&amp;nbsp;&lt;/b&gt;&lt;div&gt;&lt;div&gt;&lt;span style=&quot;background-color: initial;&quot;&gt;CreazioneUtente;&amp;nbsp;&lt;/span&gt;&lt;br&gt;&lt;/div&gt;&lt;div&gt;&lt;span style=&quot;background-color: initial;&quot;&gt;RimoviUtenti;&amp;nbsp;&lt;/span&gt;&lt;br&gt;&lt;/div&gt;&lt;/div&gt;" style="text;strokeColor=none;fillColor=none;align=left;verticalAlign=top;spacingLeft=4;spacingRight=4;overflow=hidden;rotatable=0;points=[[0,0.5],[1,0.5]];portConstraint=eastwest;whiteSpace=wrap;html=1;" vertex="1" parent="LFuUjHjW0SBnYXP0ggwj-24">
          <mxGeometry y="128" width="300" height="52" as="geometry" />
        </mxCell>
        <mxCell id="LFuUjHjW0SBnYXP0ggwj-54" style="edgeStyle=orthogonalEdgeStyle;rounded=0;orthogonalLoop=1;jettySize=auto;html=1;" edge="1" parent="WIyWlLk6GJQsqaUBKTNV-1" source="LFuUjHjW0SBnYXP0ggwj-28" target="LFuUjHjW0SBnYXP0ggwj-18">
          <mxGeometry relative="1" as="geometry" />
        </mxCell>
        <mxCell id="LFuUjHjW0SBnYXP0ggwj-28" value="&lt;font face=&quot;Lucida Console&quot;&gt;Cliente&lt;/font&gt;" style="swimlane;fontStyle=1;align=center;verticalAlign=top;childLayout=stackLayout;horizontal=1;startSize=26;horizontalStack=0;resizeParent=1;resizeParentMax=0;resizeLast=0;collapsible=1;marginBottom=0;whiteSpace=wrap;html=1;" vertex="1" parent="WIyWlLk6GJQsqaUBKTNV-1">
          <mxGeometry x="-763" y="663" width="300" height="140" as="geometry">
            <mxRectangle x="30" y="250" width="100" height="30" as="alternateBounds" />
          </mxGeometry>
        </mxCell>
        <mxCell id="LFuUjHjW0SBnYXP0ggwj-29" value="&lt;b&gt;Atributti:&lt;/b&gt;&lt;div&gt;idCarello;&lt;br&gt;&lt;/div&gt;&lt;div&gt;ArrayList StoricoAcquisti;&lt;br&gt;&lt;/div&gt;" style="text;strokeColor=none;fillColor=none;align=left;verticalAlign=top;spacingLeft=4;spacingRight=4;overflow=hidden;rotatable=0;points=[[0,0.5],[1,0.5]];portConstraint=eastwest;whiteSpace=wrap;html=1;" vertex="1" parent="LFuUjHjW0SBnYXP0ggwj-28">
          <mxGeometry y="26" width="300" height="64" as="geometry" />
        </mxCell>
        <mxCell id="LFuUjHjW0SBnYXP0ggwj-30" value="" style="line;strokeWidth=1;fillColor=none;align=left;verticalAlign=middle;spacingTop=-1;spacingLeft=3;spacingRight=3;rotatable=0;labelPosition=right;points=[];portConstraint=eastwest;strokeColor=inherit;" vertex="1" parent="LFuUjHjW0SBnYXP0ggwj-28">
          <mxGeometry y="90" width="300" height="8" as="geometry" />
        </mxCell>
        <mxCell id="LFuUjHjW0SBnYXP0ggwj-31" value="&lt;b&gt;Method:&amp;nbsp;&lt;/b&gt;&lt;div&gt;&lt;b&gt;-&lt;/b&gt;&lt;/div&gt;" style="text;strokeColor=none;fillColor=none;align=left;verticalAlign=top;spacingLeft=4;spacingRight=4;overflow=hidden;rotatable=0;points=[[0,0.5],[1,0.5]];portConstraint=eastwest;whiteSpace=wrap;html=1;" vertex="1" parent="LFuUjHjW0SBnYXP0ggwj-28">
          <mxGeometry y="98" width="300" height="42" as="geometry" />
        </mxCell>
        <mxCell id="LFuUjHjW0SBnYXP0ggwj-34" value="&lt;font face=&quot;Lucida Console&quot;&gt;Magazziniere&lt;/font&gt;" style="swimlane;fontStyle=1;align=center;verticalAlign=top;childLayout=stackLayout;horizontal=1;startSize=26;horizontalStack=0;resizeParent=1;resizeParentMax=0;resizeLast=0;collapsible=1;marginBottom=0;whiteSpace=wrap;html=1;" vertex="1" parent="WIyWlLk6GJQsqaUBKTNV-1">
          <mxGeometry x="-343" y="663" width="300" height="140" as="geometry">
            <mxRectangle x="30" y="250" width="100" height="30" as="alternateBounds" />
          </mxGeometry>
        </mxCell>
        <mxCell id="LFuUjHjW0SBnYXP0ggwj-35" value="&lt;b&gt;Atributti:&lt;/b&gt;&lt;div&gt;-&lt;/div&gt;" style="text;strokeColor=none;fillColor=none;align=left;verticalAlign=top;spacingLeft=4;spacingRight=4;overflow=hidden;rotatable=0;points=[[0,0.5],[1,0.5]];portConstraint=eastwest;whiteSpace=wrap;html=1;" vertex="1" parent="LFuUjHjW0SBnYXP0ggwj-34">
          <mxGeometry y="26" width="300" height="34" as="geometry" />
        </mxCell>
        <mxCell id="LFuUjHjW0SBnYXP0ggwj-36" value="" style="line;strokeWidth=1;fillColor=none;align=left;verticalAlign=middle;spacingTop=-1;spacingLeft=3;spacingRight=3;rotatable=0;labelPosition=right;points=[];portConstraint=eastwest;strokeColor=inherit;" vertex="1" parent="LFuUjHjW0SBnYXP0ggwj-34">
          <mxGeometry y="60" width="300" height="8" as="geometry" />
        </mxCell>
        <mxCell id="LFuUjHjW0SBnYXP0ggwj-37" value="&lt;b&gt;Method:&amp;nbsp;&lt;/b&gt;&lt;div&gt;CalcoloMedioPerSingoloDispositivo;&amp;nbsp;&lt;br&gt;RimoviIDMagazzino;&lt;span style=&quot;background-color: initial;&quot;&gt;&amp;nbsp;&lt;/span&gt;&lt;/div&gt;RicercaPrezzoAcquisto;" style="text;strokeColor=none;fillColor=none;align=left;verticalAlign=top;spacingLeft=4;spacingRight=4;overflow=hidden;rotatable=0;points=[[0,0.5],[1,0.5]];portConstraint=eastwest;whiteSpace=wrap;html=1;" vertex="1" parent="LFuUjHjW0SBnYXP0ggwj-34">
          <mxGeometry y="68" width="300" height="72" as="geometry" />
        </mxCell>
      </root>
    </mxGraphModel>
  </diagram>
</mxfile>
